# xmcd
#
# Track frame offsets: 
#        150
#        13260
#        26195
#        40692
#        55813
#        69266
#        81353
#        93861
#        107089
#        120063
#        132888
#        147827
#        160877
#        174326
#        188267
#        202348
#        214553
#        231112
#        243973
#        257552
#        270976
#        285343
#        300302
#        315224
#        329102
#
# Disc length: 4562 seconds
#
# Revision: 3
# Processed by: cddbd v1.5.2PL0 Copyright (c) Steve Scherf et al.
# Submitted via: ExactAudioCopy v0.99pb5
#
DISCID=4611d019
DTITLE=Big Bill Broonzy - The Anthology\\CD 2
DYEAR=2011
DGENRE=
TTITLE0=Whiskey And The Good Time Blues
TTITLE1=Midnight Special
TTITLE2=I Know She Will
TTITLE3=Five Feet Seven
TTITLE4=Stump Blues
TTITLE5=Preachin' The Blues
TTITLE6=Water Coast Blues
TTITLE7=Lonesome Road Blues
TTITLE8=Hey Hey
TTITLE9=Crawdad
TTITLE10=Walkin' The Lonesome Road
TTITLE11=I'm Gonna Move To The Outskirts
TTITLE12=Shine On, Shine On
TTITLE13=San Antonio Blues
TTITLE14=I Don't Want No Woman
TTITLE15=Diggin' My Potatoes
TTITLE16=Tell Me Who
TTITLE17=Tomorrow
TTITLE18=Sweet Honey Bee
TTITLE19=Wee Wee Hours
TTITLE20=Romance Without Finance
TTITLE21=Old Man Blues
TTITLE22=Make My Get Away
TTITLE23=I Feel Like Crying
TTITLE24=Sad Letter Blues
EXTD=
EXTT0=
EXTT1=
EXTT2=
EXTT3=
EXTT4=
EXTT5=
EXTT6=
EXTT7=
EXTT8=
EXTT9=
EXTT10=
EXTT11=
EXTT12=
EXTT13=
EXTT14=
EXTT15=
EXTT16=
EXTT17=
EXTT18=
EXTT19=
EXTT20=
EXTT21=
EXTT22=
EXTT23=
EXTT24=
PLAYORDER=
